<svg width="36" height="35" viewBox="0 0 36 35" fill="none" xmlns="http://www.w3.org/2000/svg">
<g id="mdi:food">
<path id="Vector" d="M26.8375 33.5417H29.2583C30.4833 33.5417 31.4896 32.5938 31.6354 31.3979L34.0416 7.36459H26.75V1.45834H23.8771V7.36459H16.6291L17.0666 10.7771C19.5604 11.4625 21.8937 12.7021 23.2937 14.0729C25.3937 16.1438 26.8375 18.2875 26.8375 21.7875V33.5417ZM1.95831 32.0833V30.625H23.8771V32.0833C23.8771 32.8708 23.2208 33.5417 22.375 33.5417H3.41665C2.61456 33.5417 1.95831 32.8708 1.95831 32.0833ZM23.8771 21.875C23.8771 10.2083 1.95831 10.2083 1.95831 21.875H23.8771ZM1.95831 24.7917H23.8333V27.7083H1.95831V24.7917Z" fill="#069AF3"/>
</g>
</svg>
