<svg width="62" height="64" viewBox="0 0 62 64" fill="none" xmlns="http://www.w3.org/2000/svg">
<path d="M30.9999 16.6667V3.33334M30.9999 3.33334L35.9999 8.33334M30.9999 3.33334L25.9999 8.33334" stroke="#66C87B" stroke-width="1.25" stroke-linecap="round" stroke-linejoin="round"/>
<path d="M16.1965 35.3876C9.0081 36.9971 1 47.8659 1 47.8659V64H61V23.5036C61 23.5036 53.6517 22.3705 48.9476 23.5036C40.5087 25.5363 38.8748 36.0022 30.345 37.4673C24.8363 38.4136 21.6625 34.1638 16.1965 35.3876Z" fill="url(#paint0_linear_10_2170)"/>
<path d="M1 48.2979C1 48.2979 9.0081 37.2403 16.1965 35.6028C21.6625 34.3577 24.8363 38.6814 30.345 37.7187C38.8748 36.228 40.5087 25.5804 48.9476 23.5124C53.6517 22.3596 61 23.5123 61 23.5123" stroke="#66C87B" stroke-width="1.7094" stroke-linecap="round"/>
<defs>
<linearGradient id="paint0_linear_10_2170" x1="31.131" y1="8.14493" x2="45.4617" y2="42.3251" gradientUnits="userSpaceOnUse">
<stop stop-color="#7FC560"/>
<stop offset="1" stop-color="white" stop-opacity="0"/>
</linearGradient>
</defs>
</svg>
