<svg width="62" height="64" viewBox="0 0 62 64" fill="none" xmlns="http://www.w3.org/2000/svg">
<path d="M31.0001 3.33332V16.6667M31.0001 16.6667L26.0001 11.6667M31.0001 16.6667L36.0001 11.6667" stroke="#ED544E" stroke-width="1.25" stroke-linecap="round" stroke-linejoin="round"/>
<path d="M45.8035 35.3876C52.9919 36.9971 61 47.8659 61 47.8659V64H1V23.5036C1 23.5036 8.34829 22.3705 13.0524 23.5036C21.4913 25.5363 23.1252 36.0022 31.655 37.4673C37.1637 38.4136 40.3375 34.1638 45.8035 35.3876Z" fill="url(#paint0_linear_10_2236)"/>
<path d="M61 48.2979C61 48.2979 52.9919 37.2403 45.8035 35.6028C40.3375 34.3577 37.1637 38.6814 31.655 37.7187C23.1252 36.228 21.4913 25.5804 13.0524 23.5124C8.34829 22.3596 0.999998 23.5123 0.999998 23.5123" stroke="#ED544E" stroke-width="2" stroke-linecap="round"/>
<defs>
<linearGradient id="paint0_linear_10_2236" x1="30.869" y1="8.14493" x2="16.5383" y2="42.3251" gradientUnits="userSpaceOnUse">
<stop stop-color="#FF5151"/>
<stop offset="1" stop-color="white" stop-opacity="0"/>
</linearGradient>
</defs>
</svg>
