<svg width="40" height="40" viewBox="0 0 40 40" fill="none" xmlns="http://www.w3.org/2000/svg">
<circle cx="20" cy="20" r="19.6429" stroke="#E6E6E6" stroke-width="0.714286"/>
<path d="M15.9982 29.0037H12.7108C12.256 29.0037 11.8199 28.8231 11.4983 28.5015C11.1768 28.1799 10.9961 27.7438 10.9961 27.289V24.0016" stroke="#323232" stroke-width="1.125" stroke-linecap="round" stroke-linejoin="round"/>
<path d="M24.002 11.9967H27.2893C27.7441 11.9967 28.1802 12.1773 28.5018 12.4989C28.8234 12.8205 29.004 13.2566 29.004 13.7114V16.9988" stroke="#323232" stroke-width="1.125" stroke-linecap="round" stroke-linejoin="round"/>
<path fill-rule="evenodd" clip-rule="evenodd" d="M20.5002 25.2522H22.501C22.7773 25.2522 23.0012 25.4761 23.0012 25.7524V29.0038H20.5002C20.224 29.0038 20 28.7798 20 28.5036V25.7524C20 25.4761 20.224 25.2522 20.5002 25.2522Z" stroke="#323232" stroke-width="1.125" stroke-linecap="round" stroke-linejoin="round"/>
<path fill-rule="evenodd" clip-rule="evenodd" d="M23.5012 21.0004H25.502C25.7783 21.0004 26.0022 21.2244 26.0022 21.5006V29.0038H23.001V21.5006C23.001 21.2244 23.2249 21.0004 23.5012 21.0004Z" stroke="#323232" stroke-width="1.125" stroke-linecap="round" stroke-linejoin="round"/>
<path fill-rule="evenodd" clip-rule="evenodd" d="M26.5031 23.2513H28.504C28.7802 23.2513 29.0042 23.4753 29.0042 23.7516V28.5035C29.0042 28.7798 28.7802 29.0037 28.504 29.0037H26.0029V23.7516C26.0029 23.4753 26.2269 23.2513 26.5031 23.2513Z" stroke="#323232" stroke-width="1.125" stroke-linecap="round" stroke-linejoin="round"/>
<path d="M11.041 13.8808V18.4994C11.041 19.3281 11.7129 20 12.5416 20H17.5437C18.3725 20 19.0443 19.3281 19.0443 18.4994V13.9529" stroke="#323232" stroke-width="1.125" stroke-linecap="round" stroke-linejoin="round"/>
<path d="M20.0003 14.7172L15.6231 11.2155C15.2578 10.9232 14.7386 10.9232 14.3732 11.2155L9.99609 14.7172" stroke="#323232" stroke-width="1.125" stroke-linecap="round" stroke-linejoin="round"/>
</svg>
