<svg width="34" height="33" viewBox="0 0 34 33" fill="none" xmlns="http://www.w3.org/2000/svg">
<path d="M25.8375 32.5417H28.2583C29.4833 32.5417 30.4896 31.5938 30.6354 30.3979L33.0416 6.36459H25.75V0.458344H22.8771V6.36459H15.6291L16.0666 9.77709C18.5604 10.4625 20.8937 11.7021 22.2937 13.0729C24.3937 15.1438 25.8375 17.2875 25.8375 20.7875V32.5417ZM0.958313 31.0833V29.625H22.8771V31.0833C22.8771 31.8708 22.2208 32.5417 21.375 32.5417H2.41665C1.61456 32.5417 0.958313 31.8708 0.958313 31.0833ZM22.8771 20.875C22.8771 9.20834 0.958313 9.20834 0.958313 20.875H22.8771ZM0.958313 23.7917H22.8333V26.7083H0.958313V23.7917Z" fill="#069AF3"/>
</svg>
