<svg width="40" height="40" viewBox="0 0 40 40" fill="none" xmlns="http://www.w3.org/2000/svg">
<circle cx="20" cy="20" r="19.6429" stroke="#E6E6E6" stroke-width="0.714286"/>
<path d="M21.9414 23.5965V27.6532C21.9414 28.3991 22.5461 29.0037 23.292 29.0037H27.7938C28.152 29.0037 28.4956 28.8615 28.7488 28.6082C29.0021 28.3549 29.1444 28.0114 29.1444 27.6532V23.6614" stroke="#323232" stroke-width="1.125" stroke-linecap="round" stroke-linejoin="round"/>
<path d="M30.0047 24.3492L26.0653 21.1977C25.7365 20.9346 25.2692 20.9346 24.9404 21.1977L21.001 24.3492" stroke="#323232" stroke-width="1.125" stroke-linecap="round" stroke-linejoin="round"/>
<path d="M15.998 21.5006H18.9993" stroke="#323232" stroke-width="1.125" stroke-linecap="round" stroke-linejoin="round"/>
<path d="M15.998 25.0021H16.9985" stroke="#323232" stroke-width="1.125" stroke-linecap="round" stroke-linejoin="round"/>
<path d="M24.0014 14.9979L21.0001 17.9992L18.285 15.9983L15.998 17.9992" stroke="#323232" stroke-width="1.125" stroke-linecap="round" stroke-linejoin="round"/>
<path d="M24.0018 16.9988V14.9979H22.001" stroke="#323232" stroke-width="1.125" stroke-linecap="round" stroke-linejoin="round"/>
<path d="M19 29.0037H13.9979C12.8929 29.0037 11.9971 28.1079 11.9971 27.0029V12.9971C11.9971 11.892 12.8929 10.9962 13.9979 10.9962H26.0029C27.1079 10.9962 28.0037 11.892 28.0037 12.9971V18.9996" stroke="#323232" stroke-width="1.125" stroke-linecap="round" stroke-linejoin="round"/>
</svg>
